<?xml version="1.0" standalone="no"?>
<!DOCTYPE svg PUBLIC "-//W3C//DTD SVG 1.1//EN" "http://www.w3.org/Graphics/SVG/1.1/DTD/svg11.dtd" >
<svg xmlns="http://www.w3.org/2000/svg" xmlns:xlink="http://www.w3.org/1999/xlink" version="1.1">
<metadata></metadata>
<defs>
<font id="bebas_neueregular" horiz-adv-x="819" >
<font-face units-per-em="2048" ascent="1536" descent="-512" />
<missing-glyph horiz-adv-x="327" />
<glyph horiz-adv-x="0" />
<glyph horiz-adv-x="682" />
<glyph unicode="&#xd;" horiz-adv-x="327" />
<glyph unicode=" "  horiz-adv-x="327" />
<glyph unicode="&#x09;" horiz-adv-x="327" />
<glyph unicode="&#xa0;" horiz-adv-x="327" />
<glyph unicode="!" horiz-adv-x="430" d="M102 836v598h226v-598l-29 -457h-168zM106 0v217h218v-217h-218z" />
<glyph unicode="&#x22;" horiz-adv-x="688" d="M78 1434h229l-55 -463h-121zM381 1434h229l-55 -463h-121z" />
<glyph unicode="#" horiz-adv-x="843" d="M33 410l16 159h101l38 375h-102l16 160h103l35 330h178l-35 -330h145l35 330h178l-34 -330h104l-16 -160h-105l-39 -375h105l-17 -159h-104l-43 -410h-178l43 410h-146l-43 -410h-178l43 410h-100zM328 569h145l39 375h-145z" />
<glyph unicode="$" d="M74 369v94h213v-109q0 -125 116 -125q117 0 117 129q0 79 -40.5 143.5t-151.5 151.5q-136 107 -192 202t-56 214q0 133 60 219.5t177 112.5v125h185v-125q118 -24 179.5 -111.5t61.5 -224.5v-41h-213v55q0 127 -112 127q-113 0 -113 -123q0 -73 41 -135.5t152 -150.5 q137 -109 192 -204.5t55 -219.5q0 -140 -62 -229t-181 -113v-144h-185v144q-120 24 -181.5 112.5t-61.5 225.5z" />
<glyph unicode="%" horiz-adv-x="1206" d="M72 866v359q0 111 56 170t161 59t161 -59t56 -170v-359q0 -111 -56 -170t-161 -59t-161 59t-56 170zM215 856q0 -90 74 -90q73 0 73 90v379q0 90 -73 90q-74 0 -74 -90v-379zM254 0l555 1434h143l-555 -1434h-143zM700 209v358q0 111 56.5 170.5t161.5 59.5t161 -59.5 t56 -170.5v-358q0 -111 -56 -170t-161 -59q-106 0 -162 59.5t-56 169.5zM844 199q0 -90 74 -90q73 0 73 90v379q0 90 -73 90q-74 0 -74 -90v-379z" />
<glyph unicode="&#x26;" horiz-adv-x="854" d="M70 307v150q0 232 166 299v4q-156 66 -156 293v26q0 173 84.5 264t251.5 91h258v-205h-254q-56 0 -85.5 -32.5t-29.5 -106.5v-89q0 -82 34 -116.5t101 -34.5h88v160h222v-160h63v-205h-63v-471q0 -119 24 -174h-225q-17 49 -21 113h-4q-37 -67 -85 -100t-120 -33 q-124 0 -186.5 83.5t-62.5 243.5zM295 317q0 -133 108 -133t125 129v332h-86q-78 0 -112.5 -42t-34.5 -140v-146z" />
<glyph unicode="'" horiz-adv-x="385" d="M78 1434h229l-55 -463h-121z" />
<glyph unicode="(" horiz-adv-x="565" d="M109 211v1012q0 171 72.5 242t242.5 71h70v-184h-56q-56 0 -80 -27.5t-24 -101.5v-1012q0 -74 24 -101.5t80 -27.5h56v-184h-70q-170 0 -242.5 71t-72.5 242z" />
<glyph unicode=")" horiz-adv-x="565" d="M72 82h55q56 0 80 27.5t24 101.5v1012q0 74 -24 101.5t-80 27.5h-55v184h69q170 0 243 -71t73 -242v-1012q0 -171 -73 -242t-243 -71h-69v184z" />
<glyph unicode="*" horiz-adv-x="864" d="M31 1075l57 174l293 -139l-41 324h184l-41 -324l293 139l58 -174l-314 -67l217 -230l-147 -108l-158 276l-158 -276l-147 108l217 230z" />
<glyph unicode="+" d="M55 637v160h275v276h159v-276h275v-160h-275v-281h-159v281h-275z" />
<glyph unicode="," horiz-adv-x="385" d="M84 0v217h217v-194l-113 -269h-104l74 246h-74z" />
<glyph unicode="-" horiz-adv-x="552" d="M51 614v205h451v-205h-451z" />
<glyph unicode="." horiz-adv-x="385" d="M84 0v217h217v-217h-217z" />
<glyph unicode="/" horiz-adv-x="796" d="M18 0l566 1434h194l-565 -1434h-195z" />
<glyph unicode="0" d="M68 340v754q0 172 88.5 266t253.5 94t253.5 -94t88.5 -266v-754q0 -172 -88.5 -266t-253.5 -94t-253.5 94t-88.5 266zM293 326q0 -142 117 -142q116 0 116 142v782q0 141 -116 141q-117 0 -117 -141v-782z" />
<glyph unicode="1" d="M164 1094v159q142 0 206.5 38t102.5 143h152v-1434h-226v1094h-235z" />
<glyph unicode="2" d="M80 0v156q0 153 49 263t176 243q126 133 173.5 226.5t47.5 196.5q0 92 -29 128t-87 36q-117 0 -117 -141v-154h-213v140q0 173 86 266.5t250 93.5t250 -93.5t86 -266.5q0 -131 -63 -256t-216 -287q-99 -105 -134.5 -172t-35.5 -143v-31h428v-205h-651z" />
<glyph unicode="3" d="M68 336v117h213v-127q0 -142 116 -142q58 0 87.5 36t29.5 126v117q0 98 -34.5 140t-112.5 42h-76v205h82q67 0 101 34.5t34 116.5v105q0 73 -30.5 108t-82.5 35q-108 0 -108 -133v-94h-213v76q0 172 84 264t245 92t245.5 -91t84.5 -263v-51q0 -230 -160 -289v-4 q166 -62 166 -295v-127q0 -172 -85.5 -263t-250.5 -91t-250 91.5t-85 264.5z" />
<glyph unicode="4" d="M31 260v205l409 969h246v-969h107v-205h-107v-260h-225v260h-430zM236 465h225v559h-4z" />
<glyph unicode="5" d="M78 340v113h213v-129q0 -140 117 -140q116 0 116 140v321q0 141 -116 141q-117 0 -117 -141v-12h-213l41 801h594v-205h-394l-18 -342h4q63 104 195 104q124 0 187 -84t63 -243v-324q0 -173 -86 -266.5t-250 -93.5t-250 93.5t-86 266.5z" />
<glyph unicode="6" d="M74 340v741q0 373 344 373q164 0 250 -93.5t86 -266.5v-27h-213v41q0 141 -117 141q-64 0 -94.5 -39t-30.5 -137v-274h4q59 125 205 125q124 0 187 -84t63 -244v-256q0 -172 -88.5 -266t-253.5 -94t-253.5 94t-88.5 266zM299 324q0 -140 117 -140q116 0 116 140v254 q0 141 -116 141q-117 0 -117 -141v-254z" />
<glyph unicode="7" d="M70 1229v205h675v-197l-352 -1237h-229l360 1229h-454z" />
<glyph unicode="8" d="M57 334v127q0 216 148 293v4q-139 75 -139 282v60q0 171 89.5 262.5t254.5 91.5t254.5 -91.5t89.5 -262.5v-60q0 -204 -140 -282v-4q148 -77 148 -293v-127q0 -172 -91 -263t-261 -91t-261.5 91t-91.5 263zM283 346q0 -162 127 -162t127 162v137q0 162 -127 162 t-127 -162v-137zM291 993q0 -143 119 -143q118 0 118 143v113q0 143 -118 143q-119 0 -119 -143v-113z" />
<glyph unicode="9" d="M61 838v256q0 172 88.5 266t253.5 94t253.5 -94t88.5 -266v-742q0 -372 -344 -372q-164 0 -249.5 93.5t-85.5 266.5v27h213v-41q0 -142 116 -142q64 0 94.5 39t30.5 137v275h-4q-59 -125 -205 -125q-124 0 -187 84t-63 244zM287 856q0 -141 116 -141q117 0 117 141v254 q0 139 -117 139q-116 0 -116 -139v-254z" />
<glyph unicode=":" horiz-adv-x="385" d="M84 0v217h217v-217h-217zM84 780v217h217v-217h-217z" />
<glyph unicode=";" horiz-adv-x="385" d="M72 -246l86 246h-74v217h217v-194l-125 -269h-104zM84 780v217h217v-217h-217z" />
<glyph unicode="&#x3c;" d="M82 641v152l627 270v-164l-433 -182l433 -182v-164z" />
<glyph unicode="=" d="M76 471v160h667v-160h-667zM76 803v160h667v-160h-667z" />
<glyph unicode="&#x3e;" d="M111 371v164l432 182l-432 182v164l626 -270v-152z" />
<glyph unicode="?" horiz-adv-x="743" d="M39 952v142q0 174 83.5 267t246.5 93t248 -93.5t85 -266.5q0 -96 -33.5 -182.5t-115.5 -194.5q-65 -88 -91 -146.5t-26 -113.5v-78h-196v86q0 75 23.5 144.5t86.5 158.5q73 104 100 179.5t27 160.5q0 74 -28 107.5t-84 33.5q-113 0 -113 -141v-156h-213zM229 0v217h217 v-217h-217z" />
<glyph unicode="@" horiz-adv-x="1425" d="M51 594q0 153 29.5 290t91 253t150 200t213 131.5t272.5 47.5q126 0 224.5 -31t162.5 -85t105.5 -131.5t59 -164.5t17.5 -191q0 -141 -26.5 -255t-68 -184t-96 -117.5t-106 -66t-102.5 -18.5q-167 0 -178 136h-4q-60 -123 -193 -123q-93 0 -142.5 63.5t-49.5 181.5 q0 24 4 70l22 207q35 303 246 303q126 0 168 -125h4l18 117h191l-59 -572q-3 -30 -3 -32q0 -39 41 -39t73.5 42t51.5 109.5t29 144.5t10 154q0 201 -100.5 316.5t-306.5 115.5q-270 0 -412.5 -200.5t-142.5 -556.5q0 -254 119 -394.5t358 -140.5q123 0 223 30t201 109 l-17 -196q-96 -64 -196.5 -89.5t-222.5 -25.5q-169 0 -296.5 52t-206 148t-117 225.5t-38.5 291.5zM610 580q0 -105 90 -105q101 0 115 129l21 195q2 12 2 24q0 44 -25 67t-65 23q-104 0 -117 -129l-19 -174q-2 -16 -2 -30z" />
<glyph unicode="A" horiz-adv-x="821" d="M25 0l233 1434h305l234 -1434h-226l-41 285v-4h-256l-41 -281h-208zM301 475h203l-101 709h-4z" />
<glyph unicode="B" horiz-adv-x="827" d="M84 0v1434h340q173 0 253.5 -81t80.5 -249v-57q0 -221 -146 -281v-4q168 -57 168 -299v-123q0 -166 -87 -253t-255 -87h-354zM309 205h129q59 0 88 32t29 109v125q0 98 -33.5 136t-111.5 38h-101v-440zM309 850h88q67 0 101 34.5t34 116.5v80q0 77 -27 112.5t-87 35.5 h-109v-379z" />
<glyph unicode="C" horiz-adv-x="784" d="M70 332v770q0 168 85 260t246 92t246.5 -92.5t85.5 -259.5v-152h-213v166q0 133 -112 133q-113 0 -113 -133v-801q0 -131 113 -131q112 0 112 131v220h213v-203q0 -167 -85.5 -259.5t-246.5 -92.5t-246 92t-85 260z" />
<glyph unicode="D" horiz-adv-x="831" d="M84 0v1434h344q167 0 251.5 -91t84.5 -264v-725q0 -173 -84.5 -263.5t-251.5 -90.5h-344zM309 205h115q56 0 85.5 32.5t29.5 106.5v746q0 74 -29.5 106.5t-85.5 32.5h-115v-1024z" />
<glyph unicode="E" horiz-adv-x="743" d="M84 0v1434h614v-205h-389v-379h309v-205h-309v-440h389v-205h-614z" />
<glyph unicode="F" horiz-adv-x="704" d="M84 0v1434h596v-205h-371v-400h291v-204h-291v-625h-225z" />
<glyph unicode="G" horiz-adv-x="800" d="M68 340v754q0 173 85.5 266.5t249.5 93.5t250 -93.5t86 -266.5v-123h-213v137q0 141 -116 141q-117 0 -117 -141v-784q0 -140 117 -140q116 0 116 140v280h-112v205h325v-469q0 -173 -86 -266.5t-250 -93.5t-249.5 93.5t-85.5 266.5z" />
<glyph unicode="H" horiz-adv-x="860" d="M84 0v1434h225v-584h242v584h225v-1434h-225v645h-242v-645h-225z" />
<glyph unicode="I" horiz-adv-x="393" d="M84 0v1434h225v-1434h-225z" />
<glyph unicode="J" horiz-adv-x="542" d="M33 0v205q33 -8 73 -8q134 0 134 137v1100h225v-1094q0 -177 -81 -262.5t-247 -85.5q-60 0 -104 8z" />
<glyph unicode="K" horiz-adv-x="847" d="M84 0v1434h225v-605l287 605h225l-268 -527l272 -907h-235l-191 639l-90 -182v-457h-225z" />
<glyph unicode="L" horiz-adv-x="704" d="M84 0v1434h225v-1229h371v-205h-596z" />
<glyph unicode="M" horiz-adv-x="1101" d="M84 0v1434h322l143 -1026h4l143 1026h322v-1434h-213v1085h-4l-164 -1085h-188l-164 1085h-4v-1085h-197z" />
<glyph unicode="N" horiz-adv-x="874" d="M84 0v1434h283l219 -859h4v859h201v-1434h-232l-270 1047h-4v-1047h-201z" />
<glyph unicode="O" d="M68 340v754q0 172 88.5 266t253.5 94t253.5 -94t88.5 -266v-754q0 -172 -88.5 -266t-253.5 -94t-253.5 94t-88.5 266zM293 326q0 -142 117 -142q116 0 116 142v782q0 141 -116 141q-117 0 -117 -141v-782z" />
<glyph unicode="P" horiz-adv-x="790" d="M84 0v1434h332q167 0 251.5 -91t84.5 -264v-141q0 -173 -84.5 -263.5t-251.5 -90.5h-107v-584h-225zM309 788h107q56 0 83 31t27 105v170q0 74 -27 104.5t-83 30.5h-107v-441z" />
<glyph unicode="Q" d="M68 340v754q0 172 88.5 266t253.5 94t253.5 -94t88.5 -266v-754q0 -144 -64 -236q11 -20 30 -26t54 -6h35v-205h-59q-154 0 -189 137q-65 -24 -149 -24q-165 0 -253.5 94t-88.5 266zM293 326q0 -142 117 -142q116 0 116 142v782q0 141 -116 141q-117 0 -117 -141v-782z " />
<glyph unicode="R" horiz-adv-x="825" d="M84 0v1434h334q173 0 253.5 -81t80.5 -249v-88q0 -222 -148 -283v-4q81 -25 115.5 -100t34.5 -203v-252q0 -119 24 -174h-229q-8 25 -11 37.5t-6.5 48t-3.5 90.5v262q0 99 -32 137.5t-109 38.5h-78v-614h-225zM309 819h82q67 0 101 34.5t34 117.5v110q0 77 -27 112.5 t-87 35.5h-103v-410z" />
<glyph unicode="S" horiz-adv-x="761" d="M45 340v82h213v-98q0 -140 117 -140t117 144q0 89 -41 157.5t-152 165.5q-140 123 -195 223t-55 224q0 170 86.5 263t249.5 93q162 0 245 -93t83 -267v-60h-213v74q0 141 -113 141t-113 -137q0 -78 42.5 -145t152.5 -164q140 -124 194 -224.5t54 -234.5 q0 -175 -87.5 -269.5t-252.5 -94.5q-164 0 -248 93t-84 267z" />
<glyph unicode="T" horiz-adv-x="745" d="M25 1229v205h696v-205h-236v-1229h-225v1229h-235z" />
<glyph unicode="U" horiz-adv-x="823" d="M76 340v1094h225v-1110q0 -140 115 -140q56 0 85 33t29 107v1110h218v-1094q0 -173 -86 -266.5t-250 -93.5t-250 93.5t-86 266.5z" />
<glyph unicode="V" horiz-adv-x="782" d="M25 1434h227l147 -1112h4l148 1112h207l-217 -1434h-299z" />
<glyph unicode="W" horiz-adv-x="1140" d="M31 1434h217l100 -1102h4l107 1102h246l106 -1102h4l100 1102h195l-145 -1434h-281l-102 967h-4l-103 -967h-299z" />
<glyph unicode="X" horiz-adv-x="831" d="M23 0l260 733l-248 701h237l152 -463h4l156 463h213l-248 -701l260 -733h-238l-163 500h-5l-167 -500h-213z" />
<glyph unicode="Y" horiz-adv-x="806" d="M18 1434h240l154 -527h4l153 527h219l-272 -824v-610h-225v610z" />
<glyph unicode="Z" horiz-adv-x="741" d="M39 0v201l418 1028h-398v205h639v-201l-417 -1028h417v-205h-659z" />
<glyph unicode="[" horiz-adv-x="565" d="M121 -102v1638h373v-184h-148v-1270h148v-184h-373z" />
<glyph unicode="\" horiz-adv-x="796" d="M18 1434h195l565 -1434h-194z" />
<glyph unicode="]" horiz-adv-x="565" d="M72 82h147v1270h-147v184h372v-1638h-372v184z" />
<glyph unicode="^" d="M39 881l293 553h151l293 -553h-184l-184 348l-185 -348h-184z" />
<glyph unicode="_" horiz-adv-x="614" d="M0 -20h614v-164h-614v164z" />
<glyph unicode="`" horiz-adv-x="1024" d="M246 1765h246l143 -235h-170z" />
<glyph unicode="a" horiz-adv-x="821" d="M25 0l233 1434h305l234 -1434h-226l-41 285v-4h-256l-41 -281h-208zM301 475h203l-101 709h-4z" />
<glyph unicode="b" horiz-adv-x="827" d="M84 0v1434h340q173 0 253.5 -81t80.5 -249v-57q0 -221 -146 -281v-4q168 -57 168 -299v-123q0 -166 -87 -253t-255 -87h-354zM309 205h129q59 0 88 32t29 109v125q0 98 -33.5 136t-111.5 38h-101v-440zM309 850h88q67 0 101 34.5t34 116.5v80q0 77 -27 112.5t-87 35.5 h-109v-379z" />
<glyph unicode="c" horiz-adv-x="784" d="M70 332v770q0 168 85 260t246 92t246.5 -92.5t85.5 -259.5v-152h-213v166q0 133 -112 133q-113 0 -113 -133v-801q0 -131 113 -131q112 0 112 131v220h213v-203q0 -167 -85.5 -259.5t-246.5 -92.5t-246 92t-85 260z" />
<glyph unicode="d" horiz-adv-x="831" d="M84 0v1434h344q167 0 251.5 -91t84.5 -264v-725q0 -173 -84.5 -263.5t-251.5 -90.5h-344zM309 205h115q56 0 85.5 32.5t29.5 106.5v746q0 74 -29.5 106.5t-85.5 32.5h-115v-1024z" />
<glyph unicode="e" horiz-adv-x="743" d="M84 0v1434h614v-205h-389v-379h309v-205h-309v-440h389v-205h-614z" />
<glyph unicode="f" horiz-adv-x="704" d="M84 0v1434h596v-205h-371v-400h291v-204h-291v-625h-225z" />
<glyph unicode="g" horiz-adv-x="800" d="M68 340v754q0 173 85.5 266.5t249.5 93.5t250 -93.5t86 -266.5v-123h-213v137q0 141 -116 141q-117 0 -117 -141v-784q0 -140 117 -140q116 0 116 140v280h-112v205h325v-469q0 -173 -86 -266.5t-250 -93.5t-249.5 93.5t-85.5 266.5z" />
<glyph unicode="h" horiz-adv-x="860" d="M84 0v1434h225v-584h242v584h225v-1434h-225v645h-242v-645h-225z" />
<glyph unicode="i" horiz-adv-x="393" d="M84 0v1434h225v-1434h-225z" />
<glyph unicode="j" horiz-adv-x="542" d="M33 0v205q33 -8 73 -8q134 0 134 137v1100h225v-1094q0 -177 -81 -262.5t-247 -85.5q-60 0 -104 8z" />
<glyph unicode="k" horiz-adv-x="847" d="M84 0v1434h225v-605l287 605h225l-268 -527l272 -907h-235l-191 639l-90 -182v-457h-225z" />
<glyph unicode="l" horiz-adv-x="704" d="M84 0v1434h225v-1229h371v-205h-596z" />
<glyph unicode="m" horiz-adv-x="1101" d="M84 0v1434h322l143 -1026h4l143 1026h322v-1434h-213v1085h-4l-164 -1085h-188l-164 1085h-4v-1085h-197z" />
<glyph unicode="n" horiz-adv-x="874" d="M84 0v1434h283l219 -859h4v859h201v-1434h-232l-270 1047h-4v-1047h-201z" />
<glyph unicode="o" d="M68 340v754q0 172 88.5 266t253.5 94t253.5 -94t88.5 -266v-754q0 -172 -88.5 -266t-253.5 -94t-253.5 94t-88.5 266zM293 326q0 -142 117 -142q116 0 116 142v782q0 141 -116 141q-117 0 -117 -141v-782z" />
<glyph unicode="p" horiz-adv-x="790" d="M84 0v1434h332q167 0 251.5 -91t84.5 -264v-141q0 -173 -84.5 -263.5t-251.5 -90.5h-107v-584h-225zM309 788h107q56 0 83 31t27 105v170q0 74 -27 104.5t-83 30.5h-107v-441z" />
<glyph unicode="q" d="M68 340v754q0 172 88.5 266t253.5 94t253.5 -94t88.5 -266v-754q0 -144 -64 -236q11 -20 30 -26t54 -6h35v-205h-59q-154 0 -189 137q-65 -24 -149 -24q-165 0 -253.5 94t-88.5 266zM293 326q0 -142 117 -142q116 0 116 142v782q0 141 -116 141q-117 0 -117 -141v-782z " />
<glyph unicode="r" horiz-adv-x="825" d="M84 0v1434h334q173 0 253.5 -81t80.5 -249v-88q0 -222 -148 -283v-4q81 -25 115.5 -100t34.5 -203v-252q0 -119 24 -174h-229q-8 25 -11 37.5t-6.5 48t-3.5 90.5v262q0 99 -32 137.5t-109 38.5h-78v-614h-225zM309 819h82q67 0 101 34.5t34 117.5v110q0 77 -27 112.5 t-87 35.5h-103v-410z" />
<glyph unicode="s" horiz-adv-x="761" d="M45 340v82h213v-98q0 -140 117 -140t117 144q0 89 -41 157.5t-152 165.5q-140 123 -195 223t-55 224q0 170 86.5 263t249.5 93q162 0 245 -93t83 -267v-60h-213v74q0 141 -113 141t-113 -137q0 -78 42.5 -145t152.5 -164q140 -124 194 -224.5t54 -234.5 q0 -175 -87.5 -269.5t-252.5 -94.5q-164 0 -248 93t-84 267z" />
<glyph unicode="t" horiz-adv-x="745" d="M25 1229v205h696v-205h-236v-1229h-225v1229h-235z" />
<glyph unicode="u" horiz-adv-x="823" d="M76 340v1094h225v-1110q0 -140 115 -140q56 0 85 33t29 107v1110h218v-1094q0 -173 -86 -266.5t-250 -93.5t-250 93.5t-86 266.5z" />
<glyph unicode="v" horiz-adv-x="782" d="M25 1434h227l147 -1112h4l148 1112h207l-217 -1434h-299z" />
<glyph unicode="w" horiz-adv-x="1140" d="M31 1434h217l100 -1102h4l107 1102h246l106 -1102h4l100 1102h195l-145 -1434h-281l-102 967h-4l-103 -967h-299z" />
<glyph unicode="x" horiz-adv-x="831" d="M23 0l260 733l-248 701h237l152 -463h4l156 463h213l-248 -701l260 -733h-238l-163 500h-5l-167 -500h-213z" />
<glyph unicode="y" horiz-adv-x="806" d="M18 1434h240l154 -527h4l153 527h219l-272 -824v-610h-225v610z" />
<glyph unicode="z" horiz-adv-x="741" d="M39 0v201l418 1028h-398v205h639v-201l-417 -1028h417v-205h-659z" />
<glyph unicode="{" horiz-adv-x="565" d="M43 625v184q76 0 102.5 26t26.5 97v377q0 112 63 169.5t164 57.5h115v-184h-33q-56 0 -82 -32t-26 -114v-307q0 -143 -125 -180v-4q125 -37 125 -180v-308q0 -82 26 -113.5t82 -31.5h33v-184h-115q-101 0 -164 57.5t-63 169.5v377q0 71 -26.5 97t-102.5 26z" />
<glyph unicode="|" horiz-adv-x="1024" d="M420 -410v2048h184v-2048h-184z" />
<glyph unicode="}" horiz-adv-x="565" d="M51 82h33q57 0 83 31.5t26 113.5v308q0 143 124 180v4q-124 37 -124 180v307q0 82 -26 114t-83 32h-33v184h115q101 0 164 -57.5t63 -169.5v-377q0 -71 26.5 -97t102.5 -26v-184q-76 0 -102.5 -26t-26.5 -97v-377q0 -112 -63 -169.5t-164 -57.5h-115v184z" />
<glyph unicode="~" d="M25 655q63 108 117.5 156.5t129.5 48.5q34 0 65.5 -12t86.5 -47q73 -47 95 -54q13 -4 26 -4q25 0 47 16t37 36t49 71l117 -88q-63 -108 -118 -156.5t-130 -48.5q-34 0 -65.5 12.5t-86.5 47.5q-38 24 -51.5 32.5t-33 16.5t-36.5 8q-25 0 -47 -16t-37 -36t-49 -71z" />
<glyph unicode="&#xa1;" horiz-adv-x="430" d="M102 0v598l29 457h168l29 -457v-598h-226zM106 1217v217h218v-217h-218z" />
<glyph unicode="&#xa2;" d="M86 459v516q0 140 61 228.5t177 113.5v137h184v-135q118 -25 180 -113.5t62 -230.5v-66h-213v80q0 133 -113 133t-113 -133v-547q0 -131 113 -131t113 131v133h213v-116q0 -142 -62 -230.5t-180 -113.5v-156h-184v158q-116 25 -177 113.5t-61 228.5z" />
<glyph unicode="&#xa3;" d="M72 0v193q92 42 143 122t51 172q0 36 -6 66h-188v174h151q-40 72 -54.5 100t-37.5 83.5t-31 105.5t-8 112q0 146 86.5 236t245.5 90q163 0 247.5 -93.5t84.5 -266.5v-84h-213v98q0 141 -113 141t-113 -141q0 -73 19.5 -142.5t55 -147t40.5 -91.5h250v-174h-211 q0 -106 -29 -189.5t-112 -158.5h411v-205h-669z" />
<glyph unicode="&#xa4;" d="M63 471l119 109q-37 58 -37 137t37 137l-119 109l101 100l108 -121q61 39 138 39q76 0 137 -39l108 121l101 -100l-119 -109q37 -58 37 -137t-37 -137l119 -109l-101 -100l-108 121q-61 -39 -137 -39q-77 0 -138 39l-108 -121zM301 717q0 -49 29.5 -79t79.5 -30 q49 0 78.5 29.5t29.5 79.5q0 49 -29 78.5t-79 29.5t-79.5 -29.5t-29.5 -78.5z" />
<glyph unicode="&#xa5;" d="M23 1434h239l156 -535h4l156 535h219l-260 -772h176v-142h-191v-149h191v-142h-191v-229h-225v229h-182v142h182v149h-182v142h168z" />
<glyph unicode="&#xa6;" horiz-adv-x="1024" d="M420 -410v820h184v-820h-184zM420 819v819h184v-819h-184z" />
<glyph unicode="&#xa7;" d="M47 596q0 191 154 274v4q-77 55 -106 120.5t-29 154.5q0 133 89.5 219t254.5 86q166 0 253 -80.5t87 -212.5v-61h-213v30q0 61 -32 99.5t-91 38.5q-60 0 -91.5 -34.5t-31.5 -94.5q0 -55 38.5 -91t137.5 -71q172 -60 238.5 -139.5t66.5 -198.5q0 -191 -154 -277v-4 q77 -55 106.5 -119.5t29.5 -152.5q0 -133 -89.5 -219t-254.5 -86q-166 0 -253 80.5t-87 212.5v82h213v-52q0 -61 32 -99t91 -38q60 0 91 34.5t31 94.5q0 55 -38.5 91t-137.5 71q-172 60 -238.5 139.5t-66.5 198.5zM262 627q0 -69 43 -108.5t125 -67.5q127 32 127 157 q0 69 -43 108.5t-125 67.5q-127 -32 -127 -157z" />
<glyph unicode="&#xa8;" horiz-adv-x="1024" d="M254 1530v209h201v-209h-201zM569 1530v209h201v-209h-201z" />
<glyph unicode="&#xa9;" horiz-adv-x="1511" d="M43 717q0 157 54 294t148.5 234t226.5 153t284 56q151 0 283.5 -56t226.5 -153t148 -234t54 -294t-54 -294t-148 -234t-226.5 -153t-283.5 -56q-152 0 -284 56t-226.5 153t-148.5 234t-54 294zM190 717q0 -260 159.5 -427t406.5 -167t406 167t159 427t-159 427t-406 167 t-406.5 -167t-159.5 -427zM516 516v397q0 124 58.5 189t173.5 65t173 -65t58 -189v-73h-148v86q0 98 -79 98q-80 0 -80 -98v-418q0 -96 80 -96q79 0 79 96v123h148v-115q0 -121 -58.5 -185.5t-172.5 -64.5t-173 64.5t-59 185.5z" />
<glyph unicode="&#xaa;" horiz-adv-x="573" d="M61 438v140h435v-140h-435zM61 879v8q0 125 70 185.5t221 66.5v108q0 76 -61 76q-36 0 -53 -20t-17 -68v-27h-135v19q0 227 207 227q101 0 152 -59t51 -168v-535h-121l-6 99h-4q-50 -109 -144 -109q-79 0 -119.5 51t-40.5 146zM205 891q0 -78 67 -78t80 74v145 q-75 -3 -111 -33t-36 -90v-18z" />
<glyph unicode="&#xab;" horiz-adv-x="688" d="M29 709l157 225h164l-117 -225l117 -238h-164zM334 709l155 225h164l-114 -225l114 -238h-164z" />
<glyph unicode="&#xac;" d="M45 637v160h709v-441h-160v281h-549z" />
<glyph unicode="&#xad;" horiz-adv-x="552" d="M51 614v205h451v-205h-451z" />
<glyph unicode="&#xae;" horiz-adv-x="1511" d="M43 717q0 157 54 294t148.5 234t226.5 153t284 56q151 0 283.5 -56t226.5 -153t148 -234t54 -294t-54 -294t-148 -234t-226.5 -153t-283.5 -56q-152 0 -284 56t-226.5 153t-148.5 234t-54 294zM190 717q0 -260 159.5 -427t406.5 -167t406 167t159 427t-159 427t-406 167 t-406.5 -167t-159.5 -427zM530 279v876h238q119 0 175 -56.5t56 -172.5v-19q0 -143 -106 -190v-4q58 -24 82 -75.5t24 -133.5v-105q0 -76 19 -120h-160q-14 38 -14 122v105q0 69 -25 98t-80 29h-53v-354h-156zM686 776h64q46 0 70 24t24 81v26q0 54 -20 79.5t-64 25.5h-74 v-236z" />
<glyph unicode="&#xaf;" horiz-adv-x="1024" d="M276 1548v160h472v-160h-472z" />
<glyph unicode="&#xb0;" d="M150 1194q0 109 75.5 184.5t184.5 75.5t184.5 -75.5t75.5 -184.5t-75.5 -184.5t-184.5 -75.5t-184.5 75.5t-75.5 184.5zM303 1194q0 -44 31.5 -75.5t75.5 -31.5t76 31.5t32 75.5t-32 76.5t-76 32.5t-75.5 -32.5t-31.5 -76.5z" />
<glyph unicode="&#xb1;" d="M74 336v160h254v225h-254v160h254v233h159v-233h254v-160h-254v-225h254v-160h-667z" />
<glyph unicode="&#xb2;" horiz-adv-x="577" d="M78 719v102q0 99 30 170t111 156q79 83 110 144t31 132q0 97 -73 97q-74 0 -74 -90v-84h-135v75q0 111 54.5 169.5t158.5 58.5t158.5 -58t54.5 -164q0 -88 -39 -167t-137 -183q-65 -69 -87 -111.5t-22 -93.5v-24h273v-129h-414z" />
<glyph unicode="&#xb3;" horiz-adv-x="577" d="M70 928v76h135v-86q0 -91 74 -91q36 0 54.5 23.5t18.5 81.5v82q0 63 -21.5 88.5t-70.5 25.5h-49v129h55q86 0 86 99v59q0 58 -18.5 81.5t-54.5 23.5q-74 0 -74 -90v-56h-135v45q0 111 54 170.5t159 59.5t159 -59.5t54 -170.5v-39q0 -137 -101 -182v-4q101 -43 101 -190 v-76q0 -111 -54 -170.5t-159 -59.5t-159 59.5t-54 170.5z" />
<glyph unicode="&#xb4;" horiz-adv-x="1024" d="M389 1530l143 235h246l-219 -235h-170z" />
<glyph unicode="&#xb5;" horiz-adv-x="829" d="M84 -328v1352h225v-719q0 -117 107 -117q54 0 86.5 34.5t32.5 107.5v694h225v-1024h-205v106q-31 -54 -82.5 -84t-114.5 -30h-49v-320h-225z" />
<glyph unicode="&#xb6;" horiz-adv-x="919" d="M53 975v104q0 169 102.5 262t274.5 93h385v-1633h-168v1469h-123v-1469h-168v824q-130 0 -216.5 98.5t-86.5 251.5z" />
<glyph unicode="&#xb7;" horiz-adv-x="385" d="M84 608v217h217v-217h-217z" />
<glyph unicode="&#xb8;" horiz-adv-x="1024" d="M309 -162h152v-16q0 -41 45 -41q28 0 40.5 11.5t12.5 37.5q0 29 -18.5 41t-57.5 12h-10v146h100v-109q71 0 106.5 -22t35.5 -74q0 -40 -14.5 -66t-45 -38.5t-64 -16.5t-85.5 -4q-94 0 -145.5 26.5t-51.5 92.5v20z" />
<glyph unicode="&#xb9;" horiz-adv-x="577" d="M119 1413v100q89 0 130.5 24.5t69.5 90.5h95v-909h-144v694h-151z" />
<glyph unicode="&#xba;" horiz-adv-x="577" d="M72 438v140h434v-140h-434zM72 909v318q0 108 56 167.5t161 59.5t161 -59.5t56 -167.5v-318q0 -108 -56 -167.5t-161 -59.5t-161 59.5t-56 167.5zM215 901q0 -48 18.5 -68t55.5 -20q73 0 73 88v334q0 88 -73 88q-37 0 -55.5 -20t-18.5 -68v-334z" />
<glyph unicode="&#xbb;" horiz-adv-x="686" d="M35 471l115 238l-115 225h164l155 -225l-155 -238h-164zM338 471l115 238l-115 225h164l155 -225l-155 -238h-164z" />
<glyph unicode="&#xbc;" horiz-adv-x="1337" d="M119 1219v100q89 0 130.5 24.5t69.5 90.5h95v-910h-144v695h-151zM319 0l555 1434h144l-555 -1434h-144zM807 164v129l260 616h156v-616h67v-129h-67v-164h-144v164h-272zM936 293h145v358h-4z" />
<glyph unicode="&#xbd;" horiz-adv-x="1337" d="M119 1219v100q89 0 130.5 24.5t69.5 90.5h95v-910h-144v695h-151zM319 0l555 1434h144l-555 -1434h-144zM838 0v102q0 99 30 170t111 156q79 83 110 144.5t31 132.5q0 50 -17.5 73t-55.5 23q-74 0 -74 -90v-84h-135v75q0 111 54.5 169.5t158.5 58.5t158.5 -57.5 t54.5 -163.5q0 -88 -39.5 -167.5t-137.5 -183.5q-64 -69 -86 -111t-22 -93v-25h272v-129h-413z" />
<glyph unicode="&#xbe;" horiz-adv-x="1337" d="M70 733v76h135v-86q0 -90 74 -90q36 0 54.5 23t18.5 81v82q0 63 -22 89t-70 26h-49v129h55q86 0 86 98v60q0 58 -18.5 81t-54.5 23q-74 0 -74 -90v-55h-135v45q0 111 54 170t159 59t159 -59t54 -170v-39q0 -137 -101 -182v-5q101 -43 101 -190v-76q0 -111 -54 -170 t-159 -59t-159 59t-54 170zM319 0l555 1434h144l-555 -1434h-144zM807 164v129l260 616h156v-616h67v-129h-67v-164h-144v164h-272zM936 293h145v358h-4z" />
<glyph unicode="&#xbf;" horiz-adv-x="743" d="M41 340q0 96 33.5 182.5t115.5 194.5q65 88 91 146.5t26 113.5v78h197v-86q0 -75 -24 -144.5t-87 -158.5q-73 -104 -100 -179.5t-27 -160.5q0 -142 113 -142t113 142v155h213v-141q0 -174 -83.5 -267t-246.5 -93t-248.5 93.5t-85.5 266.5zM297 1217v217h217v-217h-217z " />
<glyph unicode="&#xc0;" horiz-adv-x="821" d="M25 0l233 1434h305l234 -1434h-226l-41 285v-4h-256l-41 -281h-208zM145 1765h246l144 -235h-170zM301 475h203l-101 709h-4z" />
<glyph unicode="&#xc1;" horiz-adv-x="821" d="M25 0l233 1434h305l234 -1434h-226l-41 285v-4h-256l-41 -281h-208zM289 1530l143 235h246l-219 -235h-170zM301 475h203l-101 709h-4z" />
<glyph unicode="&#xc2;" horiz-adv-x="821" d="M25 0l233 1434h305l234 -1434h-226l-41 285v-4h-256l-41 -281h-208zM137 1530l168 235h213l168 -235h-170l-104 112l-105 -112h-170zM301 475h203l-101 709h-4z" />
<glyph unicode="&#xc3;" horiz-adv-x="821" d="M25 0l233 1434h305l234 -1434h-226l-41 285v-4h-256l-41 -281h-208zM127 1587q39 88 83.5 130t102.5 42q56 0 123 -39q46 -26 70 -26t42.5 18.5t39.5 61.5l108 -66q-39 -88 -83.5 -130t-102.5 -42q-56 0 -123 39q-48 27 -70 27q-24 0 -42 -18t-39 -62zM301 475h203 l-101 709h-4z" />
<glyph unicode="&#xc4;" horiz-adv-x="821" d="M25 0l233 1434h305l234 -1434h-226l-41 285v-4h-256l-41 -281h-208zM154 1530v209h200v-209h-200zM301 475h203l-101 709h-4zM469 1530v209h201v-209h-201z" />
<glyph unicode="&#xc5;" horiz-adv-x="821" d="M25 0l233 1434h305l234 -1434h-226l-41 285v-4h-256l-41 -281h-208zM229 1688q0 75 52.5 127.5t130.5 52.5t130 -52t52 -128t-52.5 -128.5t-129.5 -52.5q-78 0 -130.5 52.5t-52.5 128.5zM301 475h203l-101 709h-4zM346 1688q0 -32 19 -52t47 -20t46.5 20t18.5 52 t-18.5 51.5t-46.5 19.5t-47 -19.5t-19 -51.5z" />
<glyph unicode="&#xc6;" horiz-adv-x="1187" d="M20 0l383 1434h740v-205h-389v-379h309v-205h-309v-440h389v-205h-615v281h-221l-71 -281h-216zM356 475h172v682h-4z" />
<glyph unicode="&#xc7;" horiz-adv-x="784" d="M70 332v770q0 168 85 260t246 92t246.5 -92.5t85.5 -259.5v-152h-213v166q0 133 -112 133q-113 0 -113 -133v-801q0 -131 113 -131q112 0 112 131v220h213v-203q0 -153 -71 -244t-207 -106v-62q71 0 106 -22t35 -74q0 -40 -14.5 -66t-45 -38.5t-64 -16.5t-85.5 -4 q-94 0 -145.5 26.5t-51.5 92.5v20h152v-16q0 -41 45 -41q28 0 40.5 11.5t12.5 37.5q0 29 -18 41t-57 12h-11v99q-138 13 -211 104t-73 246z" />
<glyph unicode="&#xc8;" horiz-adv-x="743" d="M84 0v1434h614v-205h-389v-379h309v-205h-309v-440h389v-205h-614zM125 1765h246l143 -235h-170z" />
<glyph unicode="&#xc9;" horiz-adv-x="743" d="M84 0v1434h614v-205h-389v-379h309v-205h-309v-440h389v-205h-614zM268 1530l144 235h245l-219 -235h-170z" />
<glyph unicode="&#xca;" horiz-adv-x="743" d="M84 0v1434h614v-205h-389v-379h309v-205h-309v-440h389v-205h-614zM117 1530l168 235h213l168 -235h-170l-105 112l-104 -112h-170z" />
<glyph unicode="&#xcb;" horiz-adv-x="743" d="M84 0v1434h614v-205h-389v-379h309v-205h-309v-440h389v-205h-614zM133 1530v209h201v-209h-201zM449 1530v209h200v-209h-200z" />
<glyph unicode="&#xcc;" horiz-adv-x="393" d="M-70 1765h246l143 -235h-169zM84 0v1434h225v-1434h-225z" />
<glyph unicode="&#xcd;" horiz-adv-x="393" d="M74 1530l143 235h246l-219 -235h-170zM84 0v1434h225v-1434h-225z" />
<glyph unicode="&#xce;" horiz-adv-x="393" d="M-78 1530l168 235h213l168 -235h-170l-104 112l-105 -112h-170zM84 0v1434h225v-1434h-225z" />
<glyph unicode="&#xcf;" horiz-adv-x="393" d="M-61 1530v209h200v-209h-200zM84 0v1434h225v-1434h-225zM254 1530v209h201v-209h-201z" />
<glyph unicode="&#xd0;" horiz-adv-x="866" d="M20 651v193h99v590h344q167 0 251.5 -91t84.5 -264v-725q0 -173 -84.5 -263.5t-251.5 -90.5h-344v651h-99zM344 205h115q56 0 85 32.5t29 106.5v746q0 74 -29 106.5t-85 32.5h-115v-385h115v-193h-115v-446z" />
<glyph unicode="&#xd1;" horiz-adv-x="874" d="M84 0v1434h283l219 -859h4v859h201v-1434h-232l-270 1047h-4v-1047h-201zM154 1587q39 88 83.5 130t102.5 42q56 0 123 -39q46 -26 69 -26q24 0 42.5 18.5t39.5 61.5l109 -66q-39 -88 -83.5 -130t-102.5 -42q-56 0 -123 39q-48 27 -70 27q-24 0 -42.5 -18.5t-39.5 -61.5z " />
<glyph unicode="&#xd2;" d="M68 340v754q0 172 88.5 266t253.5 94t253.5 -94t88.5 -266v-754q0 -172 -88.5 -266t-253.5 -94t-253.5 94t-88.5 266zM143 1765h246l143 -235h-170zM293 326q0 -142 117 -142q116 0 116 142v782q0 141 -116 141q-117 0 -117 -141v-782z" />
<glyph unicode="&#xd3;" d="M68 340v754q0 172 88.5 266t253.5 94t253.5 -94t88.5 -266v-754q0 -172 -88.5 -266t-253.5 -94t-253.5 94t-88.5 266zM287 1530l143 235h246l-219 -235h-170zM293 326q0 -142 117 -142q116 0 116 142v782q0 141 -116 141q-117 0 -117 -141v-782z" />
<glyph unicode="&#xd4;" d="M68 340v754q0 172 88.5 266t253.5 94t253.5 -94t88.5 -266v-754q0 -172 -88.5 -266t-253.5 -94t-253.5 94t-88.5 266zM135 1530l168 235h213l168 -235h-170l-104 112l-105 -112h-170zM293 326q0 -142 117 -142q116 0 116 142v782q0 141 -116 141q-117 0 -117 -141v-782z " />
<glyph unicode="&#xd5;" d="M68 340v754q0 172 88.5 266t253.5 94t253.5 -94t88.5 -266v-754q0 -172 -88.5 -266t-253.5 -94t-253.5 94t-88.5 266zM125 1587q39 88 83.5 130t102.5 42q56 0 123 -39q46 -26 70 -26t42.5 18.5t39.5 61.5l108 -66q-39 -88 -83.5 -130t-102.5 -42q-56 0 -123 39 q-48 27 -70 27q-24 0 -42.5 -18.5t-39.5 -61.5zM293 326q0 -142 117 -142q116 0 116 142v782q0 141 -116 141q-117 0 -117 -141v-782z" />
<glyph unicode="&#xd6;" d="M68 340v754q0 172 88.5 266t253.5 94t253.5 -94t88.5 -266v-754q0 -172 -88.5 -266t-253.5 -94t-253.5 94t-88.5 266zM152 1530v209h200v-209h-200zM293 326q0 -142 117 -142q116 0 116 142v782q0 141 -116 141q-117 0 -117 -141v-782zM467 1530v209h201v-209h-201z" />
<glyph unicode="&#xd7;" d="M82 492l217 225l-215 223l109 109l217 -224l217 226l108 -109l-217 -225l217 -225l-108 -109l-217 225l-220 -225z" />
<glyph unicode="&#xd8;" d="M47 0l59 145q-38 75 -38 195v754q0 172 88.5 266t253.5 94q124 0 204 -53l35 86l123 -53l-59 -146q39 -77 39 -194v-754q0 -172 -88.5 -266t-253.5 -94q-125 0 -205 53l-35 -86zM293 606l227 561q-19 82 -110 82q-117 0 -117 -141v-502zM299 266q19 -82 111 -82 q116 0 116 142v501z" />
<glyph unicode="&#xd9;" horiz-adv-x="823" d="M76 340v1094h225v-1110q0 -140 115 -140q56 0 85 33t29 107v1110h218v-1094q0 -173 -86 -266.5t-250 -93.5t-250 93.5t-86 266.5zM145 1765h246l144 -235h-170z" />
<glyph unicode="&#xda;" horiz-adv-x="823" d="M76 340v1094h225v-1110q0 -140 115 -140q56 0 85 33t29 107v1110h218v-1094q0 -173 -86 -266.5t-250 -93.5t-250 93.5t-86 266.5zM289 1530l143 235h246l-219 -235h-170z" />
<glyph unicode="&#xdb;" horiz-adv-x="823" d="M76 340v1094h225v-1110q0 -140 115 -140q56 0 85 33t29 107v1110h218v-1094q0 -173 -86 -266.5t-250 -93.5t-250 93.5t-86 266.5zM137 1530l168 235h213l168 -235h-170l-104 112l-105 -112h-170z" />
<glyph unicode="&#xdc;" horiz-adv-x="823" d="M76 340v1094h225v-1110q0 -140 115 -140q56 0 85 33t29 107v1110h218v-1094q0 -173 -86 -266.5t-250 -93.5t-250 93.5t-86 266.5zM154 1530v209h200v-209h-200zM469 1530v209h201v-209h-201z" />
<glyph unicode="&#xdd;" horiz-adv-x="806" d="M18 1434h240l154 -527h4l153 527h219l-272 -824v-610h-225v610zM281 1530l143 235h246l-219 -235h-170z" />
<glyph unicode="&#xde;" horiz-adv-x="790" d="M84 0v1434h225v-203h107q167 0 251.5 -90.5t84.5 -263.5v-142q0 -173 -84.5 -263.5t-251.5 -90.5h-107v-381h-225zM309 586h107q56 0 83 30.5t27 104.5v170q0 74 -27 104.5t-83 30.5h-107v-440z" />
<glyph unicode="&#xdf;" horiz-adv-x="833" d="M84 0v1434h684v-201l-158 -387q178 -56 178 -330v-162q0 -173 -84 -263.5t-251 -90.5h-56v205h56q56 0 83 30.5t27 104.5v190q0 74 -27 105t-83 31h-56v190l150 373h-238v-1229h-225z" />
<glyph unicode="&#xe0;" horiz-adv-x="821" d="M25 0l233 1434h305l234 -1434h-226l-41 285v-4h-256l-41 -281h-208zM145 1765h246l144 -235h-170zM301 475h203l-101 709h-4z" />
<glyph unicode="&#xe1;" horiz-adv-x="821" d="M25 0l233 1434h305l234 -1434h-226l-41 285v-4h-256l-41 -281h-208zM289 1530l143 235h246l-219 -235h-170zM301 475h203l-101 709h-4z" />
<glyph unicode="&#xe2;" horiz-adv-x="821" d="M25 0l233 1434h305l234 -1434h-226l-41 285v-4h-256l-41 -281h-208zM137 1530l168 235h213l168 -235h-170l-104 112l-105 -112h-170zM301 475h203l-101 709h-4z" />
<glyph unicode="&#xe3;" horiz-adv-x="821" d="M25 0l233 1434h305l234 -1434h-226l-41 285v-4h-256l-41 -281h-208zM127 1587q39 88 83.5 130t102.5 42q56 0 123 -39q46 -26 70 -26t42.5 18.5t39.5 61.5l108 -66q-39 -88 -83.5 -130t-102.5 -42q-56 0 -123 39q-48 27 -70 27q-24 0 -42 -18t-39 -62zM301 475h203 l-101 709h-4z" />
<glyph unicode="&#xe4;" horiz-adv-x="821" d="M25 0l233 1434h305l234 -1434h-226l-41 285v-4h-256l-41 -281h-208zM154 1530v209h200v-209h-200zM301 475h203l-101 709h-4zM469 1530v209h201v-209h-201z" />
<glyph unicode="&#xe5;" horiz-adv-x="821" d="M25 0l233 1434h305l234 -1434h-226l-41 285v-4h-256l-41 -281h-208zM229 1688q0 75 52.5 127.5t130.5 52.5t130 -52t52 -128t-52.5 -128.5t-129.5 -52.5q-78 0 -130.5 52.5t-52.5 128.5zM301 475h203l-101 709h-4zM346 1688q0 -32 19 -52t47 -20t46.5 20t18.5 52 t-18.5 51.5t-46.5 19.5t-47 -19.5t-19 -51.5z" />
<glyph unicode="&#xe6;" horiz-adv-x="1187" d="M20 0l383 1434h740v-205h-389v-379h309v-205h-309v-440h389v-205h-615v281h-221l-71 -281h-216zM356 475h172v682h-4z" />
<glyph unicode="&#xe7;" horiz-adv-x="784" d="M70 332v770q0 168 85 260t246 92t246.5 -92.5t85.5 -259.5v-152h-213v166q0 133 -112 133q-113 0 -113 -133v-801q0 -131 113 -131q112 0 112 131v220h213v-203q0 -153 -71 -244t-207 -106v-62q71 0 106 -22t35 -74q0 -40 -14.5 -66t-45 -38.5t-64 -16.5t-85.5 -4 q-94 0 -145.5 26.5t-51.5 92.5v20h152v-16q0 -41 45 -41q28 0 40.5 11.5t12.5 37.5q0 29 -18 41t-57 12h-11v99q-138 13 -211 104t-73 246z" />
<glyph unicode="&#xe8;" horiz-adv-x="743" d="M84 0v1434h614v-205h-389v-379h309v-205h-309v-440h389v-205h-614zM125 1765h246l143 -235h-170z" />
<glyph unicode="&#xe9;" horiz-adv-x="743" d="M84 0v1434h614v-205h-389v-379h309v-205h-309v-440h389v-205h-614zM268 1530l144 235h245l-219 -235h-170z" />
<glyph unicode="&#xea;" horiz-adv-x="743" d="M84 0v1434h614v-205h-389v-379h309v-205h-309v-440h389v-205h-614zM117 1530l168 235h213l168 -235h-170l-105 112l-104 -112h-170z" />
<glyph unicode="&#xeb;" horiz-adv-x="743" d="M84 0v1434h614v-205h-389v-379h309v-205h-309v-440h389v-205h-614zM133 1530v209h201v-209h-201zM449 1530v209h200v-209h-200z" />
<glyph unicode="&#xec;" horiz-adv-x="393" d="M-70 1765h246l143 -235h-169zM84 0v1434h225v-1434h-225z" />
<glyph unicode="&#xed;" horiz-adv-x="393" d="M74 1530l143 235h246l-219 -235h-170zM84 0v1434h225v-1434h-225z" />
<glyph unicode="&#xee;" horiz-adv-x="393" d="M-78 1530l168 235h213l168 -235h-170l-104 112l-105 -112h-170zM84 0v1434h225v-1434h-225z" />
<glyph unicode="&#xef;" horiz-adv-x="393" d="M-61 1530v209h200v-209h-200zM84 0v1434h225v-1434h-225zM254 1530v209h201v-209h-201z" />
<glyph unicode="&#xf0;" horiz-adv-x="866" d="M20 651v193h99v590h344q167 0 251.5 -91t84.5 -264v-725q0 -173 -84.5 -263.5t-251.5 -90.5h-344v651h-99zM344 205h115q56 0 85 32.5t29 106.5v746q0 74 -29 106.5t-85 32.5h-115v-385h115v-193h-115v-446z" />
<glyph unicode="&#xf1;" horiz-adv-x="874" d="M84 0v1434h283l219 -859h4v859h201v-1434h-232l-270 1047h-4v-1047h-201zM154 1587q39 88 83.5 130t102.5 42q56 0 123 -39q46 -26 69 -26q24 0 42.5 18.5t39.5 61.5l109 -66q-39 -88 -83.5 -130t-102.5 -42q-56 0 -123 39q-48 27 -70 27q-24 0 -42.5 -18.5t-39.5 -61.5z " />
<glyph unicode="&#xf2;" d="M68 340v754q0 172 88.5 266t253.5 94t253.5 -94t88.5 -266v-754q0 -172 -88.5 -266t-253.5 -94t-253.5 94t-88.5 266zM143 1765h246l143 -235h-170zM293 326q0 -142 117 -142q116 0 116 142v782q0 141 -116 141q-117 0 -117 -141v-782z" />
<glyph unicode="&#xf3;" d="M68 340v754q0 172 88.5 266t253.5 94t253.5 -94t88.5 -266v-754q0 -172 -88.5 -266t-253.5 -94t-253.5 94t-88.5 266zM287 1530l143 235h246l-219 -235h-170zM293 326q0 -142 117 -142q116 0 116 142v782q0 141 -116 141q-117 0 -117 -141v-782z" />
<glyph unicode="&#xf4;" d="M68 340v754q0 172 88.5 266t253.5 94t253.5 -94t88.5 -266v-754q0 -172 -88.5 -266t-253.5 -94t-253.5 94t-88.5 266zM135 1530l168 235h213l168 -235h-170l-104 112l-105 -112h-170zM293 326q0 -142 117 -142q116 0 116 142v782q0 141 -116 141q-117 0 -117 -141v-782z " />
<glyph unicode="&#xf5;" d="M68 340v754q0 172 88.5 266t253.5 94t253.5 -94t88.5 -266v-754q0 -172 -88.5 -266t-253.5 -94t-253.5 94t-88.5 266zM125 1587q39 88 83.5 130t102.5 42q56 0 123 -39q46 -26 70 -26t42.5 18.5t39.5 61.5l108 -66q-39 -88 -83.5 -130t-102.5 -42q-56 0 -123 39 q-48 27 -70 27q-24 0 -42.5 -18.5t-39.5 -61.5zM293 326q0 -142 117 -142q116 0 116 142v782q0 141 -116 141q-117 0 -117 -141v-782z" />
<glyph unicode="&#xf6;" d="M68 340v754q0 172 88.5 266t253.5 94t253.5 -94t88.5 -266v-754q0 -172 -88.5 -266t-253.5 -94t-253.5 94t-88.5 266zM152 1530v209h200v-209h-200zM293 326q0 -142 117 -142q116 0 116 142v782q0 141 -116 141q-117 0 -117 -141v-782zM467 1530v209h201v-209h-201z" />
<glyph unicode="&#xf7;" d="M55 637v160h709v-160h-709zM301 295v217h217v-217h-217zM301 920v217h217v-217h-217z" />
<glyph unicode="&#xf8;" d="M47 0l59 145q-38 75 -38 195v754q0 172 88.5 266t253.5 94q124 0 204 -53l35 86l123 -53l-59 -146q39 -77 39 -194v-754q0 -172 -88.5 -266t-253.5 -94q-125 0 -205 53l-35 -86zM293 606l227 561q-19 82 -110 82q-117 0 -117 -141v-502zM299 266q19 -82 111 -82 q116 0 116 142v501z" />
<glyph unicode="&#xf9;" horiz-adv-x="823" d="M76 340v1094h225v-1110q0 -140 115 -140q56 0 85 33t29 107v1110h218v-1094q0 -173 -86 -266.5t-250 -93.5t-250 93.5t-86 266.5zM145 1765h246l144 -235h-170z" />
<glyph unicode="&#xfa;" horiz-adv-x="823" d="M76 340v1094h225v-1110q0 -140 115 -140q56 0 85 33t29 107v1110h218v-1094q0 -173 -86 -266.5t-250 -93.5t-250 93.5t-86 266.5zM289 1530l143 235h246l-219 -235h-170z" />
<glyph unicode="&#xfb;" horiz-adv-x="823" d="M76 340v1094h225v-1110q0 -140 115 -140q56 0 85 33t29 107v1110h218v-1094q0 -173 -86 -266.5t-250 -93.5t-250 93.5t-86 266.5zM137 1530l168 235h213l168 -235h-170l-104 112l-105 -112h-170z" />
<glyph unicode="&#xfc;" horiz-adv-x="823" d="M76 340v1094h225v-1110q0 -140 115 -140q56 0 85 33t29 107v1110h218v-1094q0 -173 -86 -266.5t-250 -93.5t-250 93.5t-86 266.5zM154 1530v209h200v-209h-200zM469 1530v209h201v-209h-201z" />
<glyph unicode="&#xfd;" horiz-adv-x="806" d="M18 1434h240l154 -527h4l153 527h219l-272 -824v-610h-225v610zM281 1530l143 235h246l-219 -235h-170z" />
<glyph unicode="&#xfe;" horiz-adv-x="790" d="M84 0v1434h225v-203h107q167 0 251.5 -90.5t84.5 -263.5v-142q0 -173 -84.5 -263.5t-251.5 -90.5h-107v-381h-225zM309 586h107q56 0 83 30.5t27 104.5v170q0 74 -27 104.5t-83 30.5h-107v-440z" />
<glyph unicode="&#xff;" horiz-adv-x="806" d="M18 1434h240l154 -527h4l153 527h219l-272 -824v-610h-225v610zM145 1530v209h201v-209h-201zM461 1530v209h201v-209h-201z" />
<glyph unicode="&#x152;" horiz-adv-x="1181" d="M68 354v725q0 174 84 264.5t251 90.5h734v-205h-389v-379h309v-205h-309v-440h389v-205h-734q-167 0 -251 90.5t-84 263.5zM293 344q0 -74 29.5 -106.5t85.5 -32.5h114v1024h-114q-56 0 -85.5 -32.5t-29.5 -106.5v-746z" />
<glyph unicode="&#x153;" horiz-adv-x="1181" d="M68 354v725q0 174 84 264.5t251 90.5h734v-205h-389v-379h309v-205h-309v-440h389v-205h-734q-167 0 -251 90.5t-84 263.5zM293 344q0 -74 29.5 -106.5t85.5 -32.5h114v1024h-114q-56 0 -85.5 -32.5t-29.5 -106.5v-746z" />
<glyph unicode="&#x178;" horiz-adv-x="806" d="M18 1434h240l154 -527h4l153 527h219l-272 -824v-610h-225v610zM145 1530v209h201v-209h-201zM461 1530v209h201v-209h-201z" />
<glyph unicode="&#x2c6;" horiz-adv-x="1024" d="M238 1530l168 235h212l168 -235h-170l-104 112l-104 -112h-170z" />
<glyph unicode="&#x2dc;" horiz-adv-x="1024" d="M227 1587q76 172 187 172q56 0 123 -39q46 -26 69 -26q24 0 42.5 18.5t39.5 61.5l109 -66q-76 -172 -187 -172q-56 0 -123 39q-48 27 -69 27q-24 0 -42.5 -18.5t-39.5 -61.5z" />
<glyph unicode="&#x2000;" horiz-adv-x="934" />
<glyph unicode="&#x2001;" horiz-adv-x="1868" />
<glyph unicode="&#x2002;" horiz-adv-x="934" />
<glyph unicode="&#x2003;" horiz-adv-x="1868" />
<glyph unicode="&#x2004;" horiz-adv-x="622" />
<glyph unicode="&#x2005;" horiz-adv-x="467" />
<glyph unicode="&#x2006;" horiz-adv-x="311" />
<glyph unicode="&#x2007;" horiz-adv-x="311" />
<glyph unicode="&#x2008;" horiz-adv-x="233" />
<glyph unicode="&#x2009;" horiz-adv-x="373" />
<glyph unicode="&#x200a;" horiz-adv-x="103" />
<glyph unicode="&#x2010;" horiz-adv-x="552" d="M51 614v205h451v-205h-451z" />
<glyph unicode="&#x2011;" horiz-adv-x="552" d="M51 614v205h451v-205h-451z" />
<glyph unicode="&#x2012;" horiz-adv-x="552" d="M51 614v205h451v-205h-451z" />
<glyph unicode="&#x2013;" horiz-adv-x="614" d="M0 625v184h614v-184h-614z" />
<glyph unicode="&#x2014;" horiz-adv-x="1024" d="M0 625v184h1024v-184h-1024z" />
<glyph unicode="&#x2018;" horiz-adv-x="385" d="M84 971v194l125 269h104l-86 -246h74v-217h-217z" />
<glyph unicode="&#x2019;" horiz-adv-x="385" d="M72 971l86 246h-74v217h217v-195l-125 -268h-104z" />
<glyph unicode="&#x201a;" horiz-adv-x="385" d="M86 0v217h217v-194l-113 -269h-104l74 246h-74z" />
<glyph unicode="&#x201c;" horiz-adv-x="688" d="M84 971v194l125 269h104l-86 -246h74v-217h-217zM387 971v194l125 269h104l-86 -246h74v-217h-217z" />
<glyph unicode="&#x201d;" horiz-adv-x="688" d="M72 971l86 246h-74v217h217v-195l-125 -268h-104zM375 971l86 246h-74v217h217v-195l-125 -268h-104z" />
<glyph unicode="&#x201e;" horiz-adv-x="688" d="M72 -246l86 246h-74v217h217v-194l-125 -269h-104zM375 -246l86 246h-74v217h217v-194l-125 -269h-104z" />
<glyph unicode="&#x2022;" horiz-adv-x="614" d="M72 717q0 98 68.5 166.5t166.5 68.5t167 -68.5t69 -166.5t-69 -167t-167 -69t-166.5 69t-68.5 167z" />
<glyph unicode="&#x2026;" horiz-adv-x="1024" d="M63 0v217h218v-217h-218zM403 0v217h218v-217h-218zM743 0v217h218v-217h-218z" />
<glyph unicode="&#x202f;" horiz-adv-x="373" />
<glyph unicode="&#x2039;" horiz-adv-x="385" d="M29 709l157 225h164l-117 -225l117 -238h-164z" />
<glyph unicode="&#x203a;" horiz-adv-x="385" d="M35 471l117 238l-117 225h164l157 -225l-157 -238h-164z" />
<glyph unicode="&#x205f;" horiz-adv-x="467" />
<glyph unicode="&#x20ac;" d="M47 573v113h57v113h-57v112h57v183q0 174 83 267t247 93t247 -93t83 -267v-68h-213v82q0 75 -27.5 108t-83.5 33q-55 0 -82.5 -33t-27.5 -108v-197h315v-112h-315v-113h315v-113h-315v-249q0 -75 27 -107.5t83 -32.5t83.5 33t27.5 107v135h213v-119q0 -174 -83 -267 t-247 -93t-247 93t-83 267v233h-57z" />
<glyph unicode="&#x2122;" horiz-adv-x="1224" d="M20 1303v131h443v-131h-150v-598h-143v598h-150zM549 705v729h215l84 -463h4l82 463h215v-729h-135v555h-4l-111 -555h-111l-110 555h-4v-555h-125z" />
<glyph unicode="&#x25fc;" horiz-adv-x="1433" d="M0 0v1434h1434v-1434h-1434z" />
</font>
</defs>
</svg>
